HIERARCHY
ROOT Hips
{
	OFFSET 0.000000 0.000000 0.000000
	CHANNELS 6 Xposition Yposition Zposition Zrotation Yrotation Xrotation 
	JOINT LHipJoint
	{
		OFFSET 0.000000 0.000000 0.000000
		CHANNELS 3 Zrotation Yrotation Xrotation
		JOINT LeftUpLeg
		{
			OFFSET 1.363060 -1.794630 0.839290
			CHANNELS 3 Zrotation Yrotation Xrotation
			JOINT LeftLeg
			{
				OFFSET 2.448110 -6.726130 0.000000
				CHANNELS 3 Zrotation Yrotation Xrotation
				JOINT LeftFoot
				{
					OFFSET 2.562200 -7.039590 0.000000
					CHANNELS 3 Zrotation Yrotation Xrotation
					JOINT LeftToeBase
					{
						OFFSET 0.157640 -0.433110 2.322550
						CHANNELS 3 Zrotation Yrotation Xrotation
						End Site
						{
							OFFSET 0.000000 0.000000 0.000000
						}
					}
				}
			}
		}
	}
	JOINT RHipJoint
	{
		OFFSET 0.000000 0.000000 0.000000
		CHANNELS 3 Zrotation Yrotation Xrotation
		JOINT RightUpLeg
		{
			OFFSET -1.305520 -1.794630 0.839290
			CHANNELS 3 Zrotation Yrotation Xrotation
			JOINT RightLeg
			{
				OFFSET -2.542530 -6.985550 0.000000
				CHANNELS 3 Zrotation Yrotation Xrotation
				JOINT RightFoot
				{
					OFFSET -2.568260 -7.056230 0.000000
					CHANNELS 3 Zrotation Yrotation Xrotation
					JOINT RightToeBase
					{
						OFFSET -0.164730 -0.452590 2.363150
						CHANNELS 3 Zrotation Yrotation Xrotation
						End Site
						{
							OFFSET 0.000000 0.000000 0.000000
						}
					}
				}
			}
		}
	}
	JOINT LowerBack
	{
		OFFSET 0.000000 0.000000 0.000000
		CHANNELS 3 Zrotation Yrotation Xrotation
		JOINT Spine
		{
			OFFSET 0.028270 2.035590 -0.193380
			CHANNELS 3 Zrotation Yrotation Xrotation
			JOINT Spine1
			{
				OFFSET 0.056720 2.048850 -0.042750
				CHANNELS 3 Zrotation Yrotation Xrotation
				JOINT Neck
				{
					OFFSET 0.000000 0.000000 0.000000
					CHANNELS 3 Zrotation Yrotation Xrotation
					JOINT Neck1
					{
						OFFSET -0.054170 1.746240 0.172020
						CHANNELS 3 Zrotation Yrotation Xrotation
						JOINT Head
						{
							OFFSET 0.104070 1.761360 -0.123970
							CHANNELS 3 Zrotation Yrotation Xrotation
							End Site
							{
								OFFSET 0.000000 0.000000 0.000000
							}
						}
					}
				}
				JOINT LeftShoulder
				{
					OFFSET 0.000000 0.000000 0.000000
					CHANNELS 3 Zrotation Yrotation Xrotation
					JOINT LeftArm
					{
						OFFSET 3.362410 1.200890 -0.311210
						CHANNELS 3 Zrotation Yrotation Xrotation
						JOINT LeftForeArm
						{
							OFFSET 4.983000 -0.000000 -0.000000
							CHANNELS 3 Zrotation Yrotation Xrotation
							JOINT LeftHand
							{
								OFFSET 3.483560 -0.000000 -0.000000
								CHANNELS 3 Zrotation Yrotation Xrotation
								JOINT LeftFingerBase
								{
									OFFSET 0.000000 0.000000 0.000000
									CHANNELS 3 Zrotation Yrotation Xrotation
									JOINT LeftHandIndex1
									{
										OFFSET 0.715260 -0.000000 -0.000000
										CHANNELS 3 Zrotation Yrotation Xrotation
										End Site
										{
											OFFSET 0.000000 0.000000 0.000000
										}
									}
								}
								JOINT LThumb
								{
									OFFSET 0.000000 0.000000 0.000000
									CHANNELS 3 Zrotation Yrotation Xrotation
									End Site
									{
										OFFSET 0.000000 0.000000 0.000000
									}
								}
							}
						}
					}
				}
				JOINT RightShoulder
				{
					OFFSET 0.000000 0.000000 0.000000
					CHANNELS 3 Zrotation Yrotation Xrotation
					JOINT RightArm
					{
						OFFSET -3.136600 1.374050 -0.404650
						CHANNELS 3 Zrotation Yrotation Xrotation
						JOINT RightForeArm
						{
							OFFSET -5.241900 -0.000000 -0.000000
							CHANNELS 3 Zrotation Yrotation Xrotation
							JOINT RightHand
							{
								OFFSET -3.444170 -0.000000 -0.000000
								CHANNELS 3 Zrotation Yrotation Xrotation
								JOINT RightFingerBase
								{
									OFFSET 0.000000 0.000000 0.000000
									CHANNELS 3 Zrotation Yrotation Xrotation
									JOINT RightHandIndex1
									{
										OFFSET -0.622530 -0.000000 -0.000000
										CHANNELS 3 Zrotation Yrotation Xrotation
										End Site
										{
											OFFSET 0.000000 0.000000 0.000000
										}
									}
								}
								JOINT RThumb
								{
									OFFSET 0.000000 0.000000 0.000000
									CHANNELS 3 Zrotation Yrotation Xrotation
									End Site
									{
										OFFSET 0.000000 0.000000 0.000000
									}
								}
							}
						}
					}
				}
			}
		}
	}
}
MOTION
Frames: 6
Frame Time: 0.008333
8.431819 17.640719 -0.658365 1.655742 6.161688 6.996777 -1.810559 1.640159 4.277516 -15.784643 -0.675923 5.641345 0.962107 9.371132 28.922349 -1.206170 12.839485 27.991675 0.072923 1.736787 4.778892 -0.668935 2.745395 -4.558075 11.989004 7.610883 -34.087682 1.932199 -12.205290 26.874888 -1.834949 -1.870494 21.470482 -0.160535 -2.534545 6.988128 2.873432 -0.827503 1.240274 1.768337 -0.831293 -4.138219 0.740044 -1.115941 -2.003762 -4.484726 1.044412 -11.968705 2.292594 1.884535 8.246318 -0.282173 0.814581 4.650092 3.924071 -10.295987 0.680623 -82.674401 -16.235526 32.530042 46.951594 -44.743577 -25.390791 -0.130862 0.138431 -31.471717 29.463775 -15.005704 -8.446218 -7.125000 0.000000 0.000000 1.265424 12.630236 -0.958247 -3.739677 9.008964 1.347059 99.172554 -25.533760 -33.673904 -2.813680 9.679616 -1.730003 1.972466 0.459575 27.692997 -13.167902 -37.872367 9.358426 7.125000 0.000000 0.000000 28.335892 -67.851362 -16.060711
8.429899 17.652642 -0.526382 1.669454 5.945344 6.867307 -1.772368 1.571160 4.150799 -15.943142 -0.547974 5.185785 1.401005 9.882811 30.316316 -1.343807 13.880530 28.489558 0.061428 1.498882 4.124170 -0.689664 2.720072 -4.475714 12.228754 7.491456 -33.993164 1.817751 -12.369545 27.510032 -1.996066 -1.196991 21.438729 -0.110227 -2.129553 5.864287 2.916916 -0.773757 1.466270 1.768509 -0.754138 -4.134561 0.726914 -1.063162 -2.127924 -4.415285 1.085195 -11.813143 2.188887 1.921838 8.167742 -0.358271 0.829371 4.584599 3.932375 -10.285375 0.673147 -82.905170 -15.657636 32.542193 46.971773 -44.807136 -25.409228 -0.132991 0.127708 -31.452992 29.421395 -14.848006 -8.344925 -7.125000 0.000000 0.000000 1.260147 12.824594 -0.949323 -3.715977 9.023012 1.346135 98.958902 -25.305662 -33.106929 -2.816403 9.701614 -1.744861 1.988924 0.464382 27.492625 -13.354561 -38.010588 9.518709 7.125000 0.000000 0.000000 28.306121 -68.029375 -16.155400
8.426654 17.667528 -0.397728 1.609255 5.709911 6.768318 -1.739523 1.493535 4.010393 -16.011106 -0.385499 4.599824 1.858793 10.393711 31.748512 -1.431489 14.798075 29.038305 0.025181 0.855236 2.351817 -0.693147 2.698340 -4.400843 12.520295 7.453147 -33.867438 1.716602 -12.507682 28.063722 -2.108742 -0.646067 21.297551 -0.086079 -1.879155 5.172244 3.009218 -0.709585 1.593889 1.776899 -0.669426 -4.103047 0.725245 -1.008393 -2.090063 -4.354508 1.112082 -11.719334 2.077674 1.947517 8.078939 -0.438285 0.837985 4.509365 3.942322 -10.264538 0.677905 -83.109736 -15.255941 32.528641 46.903446 -44.824468 -25.353040 -0.135461 0.118965 -31.438648 29.336590 -14.696706 -8.233842 -7.125000 0.000000 0.000000 1.224945 13.015990 -0.917905 -3.685903 9.024203 1.344844 98.685730 -24.918387 -32.419010 -2.823984 9.728858 -1.758573 2.002487 0.474920 27.150164 -13.470421 -38.108067 9.624415 7.125000 0.000000 0.000000 28.302736 -68.152358 -16.230833
8.423463 17.682632 -0.267575 1.441165 5.477417 6.664515 -1.709876 1.423407 3.866410 -15.939344 -0.241928 3.947003 2.350121 10.905149 33.208922 -1.541216 15.822666 29.537119 0.006503 0.274371 0.753828 -0.678862 2.670676 -4.316578 12.916138 7.436496 -33.700665 1.632875 -12.615947 28.549157 -2.205004 -0.136018 21.121991 -0.091391 -1.924703 5.298439 3.204075 -0.633661 1.700124 1.797181 -0.569311 -4.071437 0.738960 -0.946958 -2.038798 -4.334287 1.135882 -11.661029 1.988531 1.977141 8.003363 -0.494880 0.848103 4.448838 3.951849 -10.244568 0.681004 -83.314643 -14.888781 32.610407 46.747963 -44.802716 -25.217449 -0.143484 0.113740 -31.550744 29.293047 -14.570308 -8.154161 -7.125000 0.000000 0.000000 1.215539 13.165038 -0.906921 -3.649988 9.024576 1.340917 98.371050 -24.537525 -31.625412 -2.843775 9.781511 -1.775195 2.015212 0.494833 26.627025 -13.539793 -38.205729 9.700126 7.125000 0.000000 0.000000 28.359243 -68.264130 -16.335897
8.420329 17.697965 -0.135843 1.159602 5.248015 6.555652 -1.683593 1.361163 3.718665 -15.720629 -0.118239 3.223866 2.876724 11.417151 34.699006 -1.674128 16.959841 29.983417 0.006304 -0.240466 -0.660778 -0.645888 2.636773 -4.222433 13.421676 7.442626 -33.490721 1.567472 -12.692794 28.962808 -2.284004 0.331043 20.910270 -0.127689 -2.281504 6.285193 3.506791 -0.545376 1.783869 1.829971 -0.452996 -4.039727 0.768857 -0.878512 -1.973438 -4.356719 1.156438 -11.640063 1.922600 2.010914 7.941697 -0.526846 0.859804 4.403777 3.960935 -10.225510 0.682358 -83.519909 -14.557943 32.792422 46.500814 -44.739856 -24.998346 -0.157347 0.112213 -31.795820 29.292901 -14.470099 -8.107507 -7.125000 0.000000 0.000000 1.233265 13.269549 -0.917426 -3.607931 9.024088 1.334220 98.012713 -24.163409 -30.720669 -2.876407 9.860889 -1.794876 2.027057 0.524607 25.913863 -13.560272 -38.303584 9.744290 7.125000 0.000000 0.000000 28.478741 -68.364110 -16.472124
8.416954 17.714263 -0.001539 0.871318 5.041957 6.432621 -1.650462 1.308535 3.569775 -15.492299 -0.037713 2.553861 3.438442 11.922128 36.185324 -1.956365 18.497885 30.068809 0.004936 -0.434242 -1.193196 -0.605337 2.596064 -4.116515 13.930773 7.429301 -33.233127 1.515466 -12.742861 29.322443 -2.381252 0.853819 20.696879 -0.166920 -2.617937 7.217618 3.820542 -0.458684 1.874629 1.859982 -0.335499 -4.015198 0.770146 -0.809937 -1.941324 -4.339850 1.181585 -11.616409 1.874961 2.042024 7.877274 -0.556283 0.872435 4.360934 3.965526 -10.212107 0.681581 -83.677473 -14.224421 33.064046 46.075869 -44.594111 -24.631185 -0.181508 0.120382 -32.095523 29.468691 -14.435100 -8.163477 -7.125000 0.000000 0.000000 1.362510 13.255147 -1.014649 -3.569241 9.029466 1.326585 97.706876 -23.831931 -29.838117 -2.932885 9.976273 -1.816834 2.035446 0.550550 25.245038 -13.538979 -38.342700 9.747171 7.125000 0.000000 0.000000 28.556812 -68.399315 -16.542122
